# xmcd
#
# Track frame offsets: 
#        182
#        25937
#        49165
#        66142
#        79862
#        112270
#        129645
#        150972
#        176922
#        203355
#
# Disc length: 3092 seconds
#
# Revision: 21
# Processed by: cddbd v1.5.2PL0 Copyright (c) Steve Scherf et al.
# Submitted via: ExactAudioCopy v1.0b6
#
DISCID=820c120a
DTITLE=Sountrack - In the Name of the Father - In the Name of the Fath
DTITLE=er 
DYEAR=1994
DGENRE=Soundtrack
TTITLE0=Bono and Gavin Friday - In The Name Of The Father
TTITLE1=The Jimi Hendix Experience - Voodoo Child (Slight Return)
TTITLE2=Gavin Friday and Bono - Billy Boola
TTITLE3=The Kinks - Dedicated Follower Of Fashion
TTITLE4=Trevor Jones - Interrogation
TTITLE5=Bob Marley and The Wailers - Is This Love?
TTITLE6=Trevor Jones - Walking The Circle
TTITLE7=Thin Lizzy - Whiskey In The Jar
TTITLE8=Trevor Jones - Passage Of Time
TTITLE9=Sinead O'Connor - You Made Me The Thief Of Your Heart
EXTD=
EXTT0=
EXTT1=
EXTT2=
EXTT3=
EXTT4=
EXTT5=
EXTT6=
EXTT7=
EXTT8=
EXTT9=
PLAYORDER=
